<?xml version="1.0" ?><svg data-name="Your Icons" id="Your_Icons" viewBox="0 0 96 96" xmlns="http://www.w3.org/2000/svg"><defs><style>.cls-1{fill:#231f20;}</style></defs><title/><path class="cls-1" d="M75.11,74.86,56.76,49.17a1.17,1.17,0,0,1-.22-.67V30a1.16,1.16,0,0,1,1.16-1.15h1.39a2.16,2.16,0,0,0,0-4.31H44.26a2.16,2.16,0,0,0,0,4.31h1.39A1.16,1.16,0,0,1,46.81,30V48.5a1.17,1.17,0,0,1-.22.67l-.88,1.23a14.77,14.77,0,0,0-7.64-4.82V34.2a.73.73,0,0,1,.74-.72h1a1.74,1.74,0,0,0,0-3.47h-11a1.74,1.74,0,0,0,0,3.47h1a.73.73,0,0,1,.74.72V45.58A14.85,14.85,0,0,0,29,73.81l-.75,1A2.16,2.16,0,0,0,30,78.27H73.36a2.16,2.16,0,0,0,1.75-3.41ZM20.47,60A13.78,13.78,0,0,1,31.18,46.46h0a.48.48,0,0,0,.36-.34.4.4,0,0,0,0-.15V34.2a1.73,1.73,0,0,0-1.74-1.72h-1a.74.74,0,0,1,0-1.47H39.85a.74.74,0,0,1,0,1.47h-1a1.73,1.73,0,0,0-1.74,1.72V46a.4.4,0,0,0,0,.15.48.48,0,0,0,.36.34h0a13.84,13.84,0,0,1,7.63,4.79L29.59,73A13.8,13.8,0,0,1,20.47,60ZM74.38,76.64a1.11,1.11,0,0,1-1,.63H30a1.16,1.16,0,0,1-.93-1.83l1.12-1.57,15.93-22.3s0,0,0,0l1.27-1.79a2.16,2.16,0,0,0,.4-1.25V30a2.16,2.16,0,0,0-2.16-2.15H44.26a1.16,1.16,0,0,1,0-2.31H59.09a1.16,1.16,0,0,1,0,2.31H57.7A2.16,2.16,0,0,0,55.54,30V48.5a2.16,2.16,0,0,0,.4,1.25L74.29,75.44A1.11,1.11,0,0,1,74.38,76.64Z"/><path class="cls-1" d="M51.78,19.21a2.33,2.33,0,1,0,2.33-2.33A2.33,2.33,0,0,0,51.78,19.21Zm3.66,0a1.33,1.33,0,1,1-1.33-1.33A1.32,1.32,0,0,1,55.44,19.21Z"/><path class="cls-1" d="M47.35,19.29A2.33,2.33,0,1,0,45,17,2.33,2.33,0,0,0,47.35,19.29Zm0-3.66A1.33,1.33,0,1,1,46,17,1.33,1.33,0,0,1,47.35,15.63Z"/><path class="cls-1" d="M53,13.65a2.33,2.33,0,1,0-2.34-2.33A2.33,2.33,0,0,0,53,13.65ZM53,10a1.33,1.33,0,1,1-1.34,1.33A1.34,1.34,0,0,1,53,10Z"/><path class="cls-1" d="M33.73,25.63a1.85,1.85,0,1,0,1.84-1.85A1.85,1.85,0,0,0,33.73,25.63Zm2.69,0a.85.85,0,1,1-.85-.85A.85.85,0,0,1,36.42,25.63Z"/><path class="cls-1" d="M30.62,25.82A1.85,1.85,0,1,0,28.77,24,1.85,1.85,0,0,0,30.62,25.82Zm0-2.69a.85.85,0,1,1-.85.84A.85.85,0,0,1,30.62,23.13Z"/><path class="cls-1" d="M34.75,21.68a1.84,1.84,0,1,0-1.85-1.84A1.84,1.84,0,0,0,34.75,21.68Zm0-2.68a.84.84,0,1,1-.85.84A.85.85,0,0,1,34.75,19Z"/></svg>