<?xml version="1.0" ?><svg id="Layer_1" style="enable-background:new 0 0 256 256;" version="1.1" viewBox="0 0 256 256" xml:space="preserve" xmlns="http://www.w3.org/2000/svg" xmlns:xlink="http://www.w3.org/1999/xlink"><g><path d="M174,175.3c0.8,0.3,2.1,0.7,3.6,0.6c2.4-0.1,4.6-1.1,6.2-2.7c1.8-1.8,2.7-4.2,2.7-6.7c-0.2-15.1,9.4-28.3,23.7-32.8   c1-0.3,2-0.8,2.9-1.5c2-1.5,3.3-3.7,3.6-6c0.4-2.5-0.2-5-1.7-7.1c-9-12.1-9.1-28.4-0.1-40.5l1.1-1.4l0.5-1.5c0.8-2.4,0.5-5-0.6-7   c-1.1-2.3-3.1-4-5.5-4.7c-14.3-4.6-23.9-17.7-23.7-32.7c0-1.2-0.2-2.2-0.5-3.2c-0.8-2.3-2.5-4.2-4.8-5.4c-2.2-1-4.7-1.2-7-0.4   c-3.5,1.2-7.2,1.8-10.9,1.8c-11,0-21.4-5.3-27.7-14.3c-0.7-0.9-1.5-1.7-2.2-2.2c-4.2-3-10-2-13,2.2c-6.4,9-16.7,14.3-27.7,14.3   c-3.8,0-7.4-0.6-10.8-1.8c-3.2-1.1-7.3-0.3-9.7,2.2c-1.8,1.8-2.7,4.2-2.7,6.6c0.2,15.1-9.4,28.3-23.7,32.7c-1.1,0.3-2,0.8-3,1.5   c-4.1,3.1-4.9,8.9-1.9,13.1c9,12.1,9,28.4,0,40.6c-0.6,0.8-1.1,1.8-1.4,2.7c-0.7,2.4-0.5,4.8,0.6,7.2c1.2,2.2,3.2,3.8,5.4,4.5   c14.4,4.6,23.9,17.8,23.7,32.6c-0.1,1.2,0.1,2.3,0.5,3.4c0.8,2.3,2.5,4.2,4.8,5.4c2.3,1,4.7,1.2,7,0.4c3.6-1.2,7.4-1.8,11.1-1.8   c11.1,0,21.1,5.2,27.6,14.3c0.6,0.8,1.4,1.6,2.2,2.2c1.6,1.1,3.5,1.7,5.4,1.7c0.5,0,1.1,0,1.6-0.1c2.5-0.4,4.6-1.8,6-3.8   C144.3,175.6,159.7,170.5,174,175.3z M127.9,181.7c-8.2-11.3-21.3-18-35.2-18c-4.6,0-9.3,0.7-13.6,2.2c0-19-12.1-35.7-30-41.4   c11.2-15.4,11.2-35.9,0.1-51.3c18-5.9,30-22.4,30.1-41.4c4.3,1.4,8.8,2.1,13.4,2.1c13.9,0,27.1-6.7,35.3-17.9   c8.2,11.2,21.4,17.9,35.4,17.9c4.7,0,9.3-0.7,13.4-2.2c0,18.8,11.9,35.3,29.9,41.4c-11.1,15.4-11.1,35.8,0,51.3   c-18,5.9-29.9,22.4-30,41.4C158.6,160,139.2,166.3,127.9,181.7z"/><path d="M168.4,92.1c-15.3-6.4-27.3-18.3-33.8-33.6c-1.1-2.7-3.8-4.5-6.7-4.5c-2.9,0-5.6,1.8-6.7,4.4   c-6.5,15.2-18.4,27.1-33.6,33.6c-2.7,1.1-4.5,3.7-4.5,6.6c0,2.9,1.7,5.5,4.4,6.7c14.7,6.4,26.9,18.8,33.6,34   c1.2,2.7,3.8,4.4,6.6,4.4c0,0,0,0,0,0c2.9,0,5.5-1.7,6.6-4.4c6.4-14.8,18.8-27.1,34.1-33.9c2.6-1.2,4.3-3.8,4.3-6.7   C172.8,95.8,171.1,93.2,168.4,92.1z M127.8,130.6c-7.2-13.6-18.3-24.8-31.5-31.9c13.6-7,24.6-17.9,31.6-31.5   c7,13.7,18.1,24.7,31.8,31.6C146,106.1,134.8,117.3,127.8,130.6z"/><path d="M98.6,188.8c-2.3-1.5-5.3-0.8-6.8,1.4l-26.2,40.1l-13.1-26.9l-27.3-0.1l27.4-42c1.5-2.3,0.8-5.3-1.4-6.8   c-2.3-1.5-5.3-0.8-6.8,1.4L7.1,213.1l39.3,0.1l18,36.9l35.6-54.5C101.5,193.3,100.9,190.2,98.6,188.8z"/><path d="M211.5,155.9c-1.5-2.3-4.5-2.9-6.8-1.4c-2.3,1.5-2.9,4.5-1.4,6.8l27.5,42l-27.4,0.1l-13.1,26.9l-26.2-40.1   c-1.5-2.3-4.5-2.9-6.8-1.4c-2.3,1.5-2.9,4.5-1.4,6.8l35.7,54.5l18-36.9l39.3-0.1L211.5,155.9z"/></g></svg>