<?xml version="1.0" ?><svg viewBox="0 0 64 64" xmlns="http://www.w3.org/2000/svg"><defs><style>.cls-1{fill:none;stroke:#000;stroke-linecap:round;stroke-linejoin:round;stroke-width:2px;}</style></defs><title/><g data-name="Layer 42" id="Layer_42"><path class="cls-1" d="M42.53,17.69h0A4.54,4.54,0,0,1,39.32,10h0L33.58,4.21h0A4.54,4.54,0,0,1,25.84,1H17.72A4.54,4.54,0,0,1,10,4.21h0L4.24,10h0A4.54,4.54,0,0,1,1,17.69H1v8.12H1a4.54,4.54,0,0,1,3.21,7.74h0L10,39.29h0a4.54,4.54,0,0,1,7.74,3.21h8.12a4.54,4.54,0,0,1,7.74-3.21h0l5.74-5.74h0a4.54,4.54,0,0,1,3.21-7.74h0ZM32.41,21.75h0a10.66,10.66,0,0,1-3.11,7.52h0a10.66,10.66,0,0,1-7.52,3.11h0a10.66,10.66,0,0,1-7.52-3.11h0a10.66,10.66,0,0,1-3.11-7.52h0a10.66,10.66,0,0,1,3.11-7.52h0a10.66,10.66,0,0,1,7.52-3.11h0a10.66,10.66,0,0,1,7.52,3.11h0A10.66,10.66,0,0,1,32.41,21.75Z"/><path class="cls-1" d="M63,45.63h0a3.18,3.18,0,0,1-2.23-5.42h0l-4-4h0a3.15,3.15,0,0,1-5.38-2.24H45.7a3.15,3.15,0,0,1-5.38,2.24h0l-4,4h0a3.18,3.18,0,0,1-2.23,5.42h0v5.68h0a3.18,3.18,0,0,1,2.23,5.42h0l4,4h0A3.15,3.15,0,0,1,45.7,63h5.65a3.15,3.15,0,0,1,5.38-2.24h0l4-4h0A3.18,3.18,0,0,1,63,51.31h0Zm-7,2.84h0a7.48,7.48,0,0,1-2.16,5.26h0a7.36,7.36,0,0,1-5.23,2.18h0a7.32,7.32,0,0,1-5.22-2.18h0a7.45,7.45,0,0,1-2.17-5.26h0a7.45,7.45,0,0,1,2.17-5.26h0A7.32,7.32,0,0,1,48.52,41h0a7.36,7.36,0,0,1,5.23,2.18h0A7.48,7.48,0,0,1,55.91,48.47Z"/></g></svg>